<?xml version="1.0" encoding="utf-8"?>
<!-- Designed by Vexels.com - 2016 All Rights Reserved - https://vexels.com/terms-and-conditions/  -->

<svg version="1.1" id="Layer_1" xmlns="http://www.w3.org/2000/svg" xmlns:xlink="http://www.w3.org/1999/xlink" x="0px" y="0px"
	 width="1200px" height="1200px" viewBox="0 0 1200 1200" enable-background="new 0 0 1200 1200" xml:space="preserve">
<path fill="#575756" d="M1054.535,280.239l-31.153-13.391c0,0-22.8,52.895-88.254,81.96L552.436,183.957
	c-23.892-67.638-1.092-120.562-1.092-120.562L520.194,50c-118.573,162.506,5.265,289.685,5.265,289.685l23.639,27.46
	c-87.998,7.771-170.537,25.951-196.934,64.872c0,0-55.947,84.66-69.95,175.739c0,0-5.266,67.667,82.472,174.838
	c-218.515,10.438-219.222,137.134-219.222,137.134l36.741,13.875c7.067-13.135,24.086-22.705,47.53-29.611l403.633,173.875
	c10.984,21.745,15.799,40.789,11.112,54.917L679.743,1150c0,0,91.659-87.547-50.872-253.588
	c138.163-9.826,183.639-60.12,183.639-60.12c56.653-72.742,79.776-171.53,79.776-171.53
	c10.277-45.959-33.337-118.379-88.189-187.717l36.29-1.671C840.388,475.375,1017.86,478.042,1054.535,280.239z M256.329,897.698
	c62.175-11.691,149.917-10.79,218.646-7.452c49.586,47.662,110.476,110.801,144.582,163.986L256.329,897.698z M521.671,781.726
	c-56.397-60.442-115.81-124.479-122.874-133.473c0,0-13.747-18.239-28.391-40.819l381.922,164.561
	c-26.53,4.818-49.268,7.386-49.268,7.386C691.691,780.477,604.338,781.213,521.671,781.726z M780.139,766.279L355.373,583.253
	c-8.284-14.292-15.351-28.424-18.433-39.309c0,0,30.637-24.987,80.224-41.207L796.26,666.048
	c22.225,47.209,25.178,86.679,25.178,86.679C811.355,757.962,796.26,762.458,780.139,766.279z M732.477,580.329
	c22.291,19.719,38.991,41.43,51.514,62.692L442.279,495.768c24.086-5.459,51.385-8.222,80.934-5.555l126.663-5.91L732.477,580.329z
	 M702.547,361.942c-43.871-45.443-77.915-76.629-77.915-76.629c-30.571-26.753-50.549-53.987-63.073-79.776l351.475,151.525
	c-27.365,8.541-60.764,12.684-101.231,8.863C811.803,365.925,765.752,362.584,702.547,361.942z"/>
</svg>
